# xmcd
#
# Track frame offsets:
#	150
#	9596
#	22959
#	32960
#	46199
#	58076
#	69523
#	80004
#	88549
#	102967
#	113273
#	124086
#	135734
#	146369
#	156347
#	164078
#
# Disc length: 2337 seconds
#
# Revision: 1
# Processed by: cddbd v1.5.1PL0 Copyright (c) Steve Scherf et al.
# Submitted via: MusicWizard 7.0.2
#
DISCID=d1091f10
DTITLE=Various Artist - A Bouquet Of Country
DYEAR=1999
DGENRE=Country
TTITLE0=Fiddlin' Frenchie Burke - Cotton-Eyed Joe
TTITLE1=B.J. Thomas - Tomorrow Never Comes
TTITLE2=Mickey Gilley - Fraulein
TTITLE3=Freddy Fender - Sice I Met You Baby
TTITLE4=Doug Kershaw - Bad Moon Rising
TTITLE5=Ray Frushay - Cheatin' Traces
TTITLE6=Floyd Tillman - This Cold War With You
TTITLE7=Moe Bandy - Playboy
TTITLE8=Roy Head - My Elusive Dreams
TTITLE9=Ronnie Milsap - Lonely Weekends
TTITLE10=Sir Douglas Quintet - In The Jailhouse Now
TTITLE11=Link Davis - Big Mamou
TTITLE12=Tommy McLain - Before The Next Teardrop Falls
TTITLE13=Joe Barry - Bouquet Of Roses
TTITLE14=Rod Bernard - Lovin' Cajun Style
TTITLE15=Jimmy Donley - I'm To Blame
EXTD=YEAR: 1999
EXTT0=
EXTT1=
EXTT2=
EXTT3=
EXTT4=
EXTT5=
EXTT6=
EXTT7=
EXTT8=
EXTT9=
EXTT10=
EXTT11=
EXTT12=
EXTT13=
EXTT14=
EXTT15=
PLAYORDER=
